<svg xmlns="http://www.w3.org/2000/svg" viewBox="0 0 64 64"><path fill="#5aaae7" d="M37.24,26.63a1.028,1.028,0,0,0-.13.8l.74,3.01a1.015,1.015,0,0,0,.74.73l.21.05,2.92.71a.939.939,0,0,0,.55-.02l2.15-.7a1,1,0,0,1,1.01.25l1.31,1.31a1.019,1.019,0,0,1,.26.67v3.23a1.029,1.029,0,0,0,.2.6l2.6,3.46a1.029,1.029,0,0,1,.2.6v3.26a1.009,1.009,0,0,0,.29.7l.52.52A20.9,20.9,0,0,1,35,53h-.08a20.344,20.344,0,0,1-2.94-.22A20.965,20.965,0,0,1,14.14,29.61l1.72,2.21a1.022,1.022,0,0,0,.34.28l.16.08,4.19,2.1a1,1,0,0,0,1.45-.9V31.54a.833.833,0,0,0-.03-.22v-.01a.966.966,0,0,0-.42-.61l-1.52-1.02-.58-.38a1.013,1.013,0,0,1-.45-.84V26.82a1,1,0,0,1,.8-.98l4.07-.81a1.064,1.064,0,0,0,.25-.09l3.67-1.83a.922.922,0,0,0,.35-.3l2.65-3.53a1.006,1.006,0,0,1,.55-.37l3.28-.82a.934.934,0,0,0,.59-.41l.93-1.39a1.022,1.022,0,0,0,.17-.57,1.01,1.01,0,0,0-.84-.97l-3.98-.67h-.02a.958.958,0,0,1-.7-.5l-.45-.79-.62-1.11A20.589,20.589,0,0,1,35,11,21.032,21.032,0,0,1,52.89,21a20.538,20.538,0,0,1,1.87,3.86l-3.43,1.95a1.063,1.063,0,0,1-.7.12l-4.44-.89a1.091,1.091,0,0,1-.35-.15l-2.59-1.72A.991.991,0,0,0,42.7,24H39.54a1.013,1.013,0,0,0-.84.45Z"/><path fill="#3d9ae2" d="M30.77 13.58l-.45-.79c.13-.04.25-.08.38-.11l.79 1.4h-.02A.958.958 0 0130.77 13.58zM37.14 17.29l-.93 1.39a.934.934 0 01-.59.41l-3.28.82a1.006 1.006 0 00-.55.37l-2.65 3.53a.922.922 0 01-.35.3l-3.67 1.83a1.064 1.064 0 01-.25.09l-4.07.81a1 1 0 00-.8.98v1.64a.833.833 0 00.03.22l-.58-.38a1.013 1.013 0 01-.45-.84V26.82a1 1 0 01.8-.98l4.07-.81a1.064 1.064 0 00.25-.09l3.67-1.83a.922.922 0 00.35-.3l2.65-3.53a1.006 1.006 0 01.55-.37l3.28-.82a.934.934 0 00.59-.41l.93-1.39a1.022 1.022 0 00.17-.57l.16.03A1 1 0 0137.14 17.29zM42.65 40.24l-.56 2.25a1 1 0 01-.66.71l-1.73.57a1.009 1.009 0 00-.69.95L39 46.39a.991.991 0 01-.55.88l-2.9 1.45a1 1 0 00-.55.9V52.6a1.057 1.057 0 01-.08.4 20.344 20.344 0 01-2.94-.22.816.816 0 01-.14-.26l-1.79-5.35a1.185 1.185 0 01-.05-.32V43.62a1 1 0 00-.55-.9l-1.3-.65a1 1 0 01-.26-.18l-1.6-1.6a1.009 1.009 0 01-.29-.7V36.58a1.015 1.015 0 01.48-.86l3.84-2.34a1.013 1.013 0 011.24.15l2.15 2.17a.982.982 0 00.71.3h3.04a1.013 1.013 0 01.84.45l1.38 2.1a1 1 0 00.83.45h1.17A1 1 0 0142.65 40.24zM46.43 32.46a1 1 0 00-1.01-.25l-2.15.7a.939.939 0 01-.55.02l-3.13-.76a1.015 1.015 0 01-.74-.73l-.05-.22 2.92.71a.939.939 0 00.55-.02l2.15-.7a1 1 0 011.01.25z"/><path fill="#00ccb3" d="M35.47 14.75a1 1 0 01.67 1.54l-.93 1.39a.934.934 0 01-.59.41l-3.28.82a1.006 1.006 0 00-.55.37l-2.65 3.53a.922.922 0 01-.35.3l-3.67 1.83a1.064 1.064 0 01-.25.09l-4.07.81a1 1 0 00-.8.98v1.64a1.013 1.013 0 00.45.84l2.1 1.4a1.013 1.013 0 01.45.84v1.84a1 1 0 01-1.45.9L16.2 32.1a1.022 1.022 0 01-.34-.28l-1.72-2.21A20.982 20.982 0 0129.7 11.68l1.07 1.9a.958.958 0 00.7.5zM40.68 38a1 1 0 01.97 1.24l-.56 2.25a1 1 0 01-.66.71l-1.73.57a1.009 1.009 0 00-.69.95L38 45.39a.991.991 0 01-.55.88l-2.9 1.45a1 1 0 00-.55.9V51.6a.993.993 0 01-1.31.95l-1.22-.4a.989.989 0 01-.63-.63l-1.79-5.35a1.185 1.185 0 01-.05-.32V42.62a1 1 0 00-.55-.9l-1.3-.65a1 1 0 01-.26-.18l-1.6-1.6a1.009 1.009 0 01-.29-.7V35.58a1.015 1.015 0 01.48-.86l3.84-2.34a1.013 1.013 0 011.24.15l2.15 2.17a.982.982 0 00.71.3h3.04a1.013 1.013 0 01.84.45l1.38 2.1a1 1 0 00.83.45zM56 32a20.845 20.845 0 01-5.19 13.81l-.52-.52a1.009 1.009 0 01-.29-.7V41.33a1.029 1.029 0 00-.2-.6l-2.6-3.46a1.029 1.029 0 01-.2-.6V33.44a1.033 1.033 0 00-.29-.71l-1.28-1.27a1 1 0 00-1.01-.25l-2.15.7a.939.939 0 01-.55.02l-3.13-.76a1.015 1.015 0 01-.74-.73l-.74-3.01a1.028 1.028 0 01.13-.8l1.46-2.18a1.013 1.013 0 01.84-.45H42.7a.991.991 0 01.55.17l2.59 1.72a1.091 1.091 0 00.35.15l4.44.89a1.063 1.063 0 00.7-.12l3.43-1.95A21.09 21.09 0 0156 32z"/><circle cx="54" cy="10" r="3" fill="#ff5023"/><path fill="#3d9ae2" d="M52.89,21H44a3,3,0,0,1,0-6h1.55a4.2,4.2,0,0,1-.51-1.44A21,21,0,0,1,52.89,21Z"/><path fill="#e6e7e8" d="M55.91,12.31A3.492,3.492,0,0,1,54.5,19H43a3,3,0,0,1,0-6h1.55A3.993,3.993,0,1,1,52,11a4.091,4.091,0,0,1-.14,1H54.5A3.341,3.341,0,0,1,55.91,12.31Z"/><path fill="#bddbff" d="M24 40a8.956 8.956 0 01-3.22 6.89l-2.83-1.41A2.9 2.9 0 0017 43.77V42.65a5.769 5.769 0 002.24-1.41A5.832 5.832 0 0020.91 38H22a2.015 2.015 0 002-2v4zM13 53h4v3.05a2.734 2.734 0 00-.5-.05H13z"/><path fill="#bddbff" d="M17 56.05A2.5 2.5 0 0116.5 61H15V56h1.5A2.734 2.734 0 0117 56.05zM8 38H9.09A5.981 5.981 0 0013 42.65v1.12a2.9 2.9 0 00-.95 1.71L9.22 46.89A8.956 8.956 0 016 40V36a2.015 2.015 0 002 2z"/><path fill="#3d9ae2" d="M23,32.54v1.84a1,1,0,0,1-1.45.9L17.2,33.1a1.022,1.022,0,0,1-.34-.28l-.5-.64,4.19,2.1a1,1,0,0,0,1.45-.9V31.54a.833.833,0,0,0-.03-.22l.58.38A1.013,1.013,0,0,1,23,32.54Z"/><path fill="#bddbff" d="M8,34a2.006,2.006,0,0,0-2,2V32a9,9,0,0,1,9-9,8.22,8.22,0,0,1,.99.06,8.9,8.9,0,0,1,5.27,2.49.9.9,0,0,1,.1.09A8.954,8.954,0,0,1,24,32v4a2.006,2.006,0,0,0-2-2H21V32l-3-3c-4,3-4,3-9,3v2Z"/><path fill="#bddbff" d="M9 34v3a5.47 5.47 0 00.09 1H8a2.015 2.015 0 01-2-2 2.006 2.006 0 012-2zM13 42.65A5.8 5.8 0 0015 43a2.965 2.965 0 00-2 .77zM17 42.65v1.12A2.965 2.965 0 0015 43 5.8 5.8 0 0017 42.65z"/><path fill="#bddbff" d="M17.95,45.48A2.957,2.957,0,0,1,18,46a3,3,0,0,1-6,0,2.957,2.957,0,0,1,.05-.52A2.9,2.9,0,0,1,13,43.77a2.982,2.982,0,0,1,4,0A2.9,2.9,0,0,1,17.95,45.48Z"/><polygon fill="#bddbff" points="19 49 19 53 17 53 13 53 11 53 11 49 15 49 19 49"/><path fill="#bddbff" d="M9,37V32c5,0,5,0,9-3l3,3v5a5.47,5.47,0,0,1-.09,1,5.832,5.832,0,0,1-1.67,3.24A5.958,5.958,0,0,1,13,42.65,5.981,5.981,0,0,1,9.09,38,5.47,5.47,0,0,1,9,37Z"/><path fill="#bddbff" d="M22,34a2.006,2.006,0,0,1,2,2,2.015,2.015,0,0,1-2,2H20.91A5.47,5.47,0,0,0,21,37V34Z"/><rect width="18" height="26" x="6" y="23" fill="#57565c" rx="9"/><path fill="#ed539d" d="M22.58,47.79,17,45a2,2,0,0,1-4,0L7.42,47.79A7.985,7.985,0,0,0,3,54.94V58a3,3,0,0,0,3,3H27V54.94A7.985,7.985,0,0,0,22.58,47.79Z"/><path fill="#ffc477" d="M16.5 56a2.5 2.5 0 110 5H15V56zM17 42.65V45a2 2 0 01-4 0V42.65a5.889 5.889 0 004 0z"/><path fill="#ffb655" d="M24 36a2.015 2.015 0 01-2 2H20V34h2A2.006 2.006 0 0124 36zM10 37v1H8a2.015 2.015 0 01-2-2 2.006 2.006 0 012-2h2zM17 42.65v1a5.889 5.889 0 01-4 0v-1a5.889 5.889 0 004 0z"/><path fill="#ffc477" d="M9,37V32c5,0,5,0,9-3l3,3v5a5.944,5.944,0,0,1-1.76,4.24A5.958,5.958,0,0,1,13,42.65,5.981,5.981,0,0,1,9,37Z"/><polygon fill="#ff9811" points="19 49 19 53 17 53 13 53 11 53 11 49 15 49 19 49"/><path fill="#c6c5ca" d="M13 53h4v3.05a2.734 2.734 0 00-.5-.05H13zM17.95 45.48A2.957 2.957 0 0118 46a3 3 0 01-6 0 2.957 2.957 0 01.05-.52A2.9 2.9 0 0113 43.77a2.982 2.982 0 014 0A2.9 2.9 0 0117.95 45.48z"/><rect width="4" height="2" x="13" y="53" fill="#acabb1"/><path d="M13.5,37.6l-1,1.732a5.006,5.006,0,0,0,5,0l-1-1.732A3.054,3.054,0,0,1,13.5,37.6Z"/><rect width="2" height="2" x="12" y="34"/><rect width="2" height="2" x="16" y="34"/><path d="M59,15.5a4.474,4.474,0,0,0-1.61-3.42A3.952,3.952,0,0,0,58,10a3.988,3.988,0,0,0-6.82-2.82,4.968,4.968,0,0,0-1.86-.98l1.14-1.15L49.05,3.64,47.64,5.05l1.01,1.02A4.616,4.616,0,0,0,48,6a5,5,0,0,0-5,5c0,.18.04.35.05.53A21.814,21.814,0,0,0,35,10,22.107,22.107,0,0,0,15.4,22.02c-.13-.01-.26-.02-.4-.02A10.016,10.016,0,0,0,5,32v8a9.939,9.939,0,0,0,2.53,6.62l-.56.28A8.932,8.932,0,0,0,2,54.94V58a4,4,0,0,0,4,4H27a1,1,0,0,0,1-1V54.94a9.151,9.151,0,0,0-.28-2.17A22.006,22.006,0,0,0,53.44,20H54.5A4.507,4.507,0,0,0,59,15.5ZM54,8a2.006,2.006,0,0,1,2,2,2.027,2.027,0,0,1-.37,1.16A4.741,4.741,0,0,0,54.5,11H53a4.976,4.976,0,0,0-.55-2.24A1.967,1.967,0,0,1,54,8ZM29.22,12.87l.66,1.17a1.986,1.986,0,0,0,1.43,1.03l4,.66-.93,1.39-3.3.83a1.953,1.953,0,0,0-1.09.73l-2.65,3.53-3.67,1.84-2.11.42a9.913,9.913,0,0,0-4.06-2.15A20.114,20.114,0,0,1,29.22,12.87ZM7,32a8.011,8.011,0,0,1,8-8,8.006,8.006,0,0,1,8,8v1.18A3,3,0,0,0,22,33V32a1.033,1.033,0,0,0-.29-.71l-3-3a1,1,0,0,0-1.31-.09C13.67,31,13.67,31,9,31a1,1,0,0,0-1,1v1a3,3,0,0,0-1,.18ZM18,50v2H12V50Zm-5-4a2,2,0,1,1,2,2A2.006,2.006,0,0,1,13,46Zm2-4a5,5,0,0,1-5-5V33c4.01-.02,4.63-.24,7.91-2.68L20,32.41V37A5,5,0,0,1,15,42Zm3,1.32A7.052,7.052,0,0,0,21.71,39H22a3.051,3.051,0,0,0,1-.18V40a7.959,7.959,0,0,1-2.4,5.69l-1.81-.91a4.125,4.125,0,0,0-.79-1.4Zm4.69-6.61A.928.928,0,0,1,22,37V35a1,1,0,0,1,1,1A.949.949,0,0,1,22.69,36.71ZM8,35v2a.949.949,0,0,1-.71-.31A.928.928,0,0,1,7,36,1,1,0,0,1,8,35ZM7,40V38.82A3.051,3.051,0,0,0,8,39h.29A7.052,7.052,0,0,0,12,43.32v.06a4.125,4.125,0,0,0-.79,1.4l-1.81.91A7.959,7.959,0,0,1,7,40Zm7,20H6a2.006,2.006,0,0,1-2-2V54.94a6.924,6.924,0,0,1,3.87-6.25l3.29-1.65a3.68,3.68,0,0,0,.4.96H11a1,1,0,0,0-1,1v4a1,1,0,0,0,1,1h1v1H9V53H7v2.59l-1.71,1.7,1.42,1.42L8.41,57H14Zm0-6h2v1H14Zm2.5,6H16V57h.5a1.5,1.5,0,0,1,0,3ZM26,60H23V53H21v7H19.65A3.446,3.446,0,0,0,20,58.5a3.5,3.5,0,0,0-2-3.15V54h1a1,1,0,0,0,1-1V49a1,1,0,0,0-1-1h-.56a3.68,3.68,0,0,0,.4-.96l3.29,1.65A6.924,6.924,0,0,1,26,54.94Zm.64-9.83a8.93,8.93,0,0,0-3.61-3.27l-.56-.28a9.933,9.933,0,0,0,2.51-6.23l1.2,1.2a1.992,1.992,0,0,0,.52.38l1.3.65v3.23a1.932,1.932,0,0,0,.1.63l1.61,4.81A20.163,20.163,0,0,1,26.64,50.17ZM33,48.62V51.6l-1.21-.4L30,45.85V42.62a1.982,1.982,0,0,0-1.11-1.79l-1.3-.65L26,38.59V35.58l3.85-2.35L32,35.41a2.031,2.031,0,0,0,1.42.59h3.04l1.38,2.1a2.021,2.021,0,0,0,1.67.9h1.17l-.56,2.25-1.74.58a1.991,1.991,0,0,0-1.37,1.88L37,45.38l-2.89,1.45A1.982,1.982,0,0,0,33,48.62ZM55,32a19.879,19.879,0,0,1-4,11.95V41.33a2.011,2.011,0,0,0-.4-1.2L48,36.67V33.44a2.033,2.033,0,0,0-.59-1.42l-1.26-1.25a2,2,0,0,0-2.04-.51l-2.15.7-3.14-.76-.75-3.01L39.54,25H42.7l2.57,1.71a2.014,2.014,0,0,0,.72.31l4.48.9a2.1,2.1,0,0,0,1.35-.24l2.36-1.34A20.12,20.12,0,0,1,55,32Zm-1.49-7.58-2.68,1.53-4.44-.89-2.57-1.71A1.978,1.978,0,0,0,42.7,23H39.54a2.011,2.011,0,0,0-1.67.89L36.39,26.1a2.029,2.029,0,0,0-.25,1.57l.74,3.01a2,2,0,0,0,1.47,1.46l3.1.75a1.978,1.978,0,0,0,1.13-.03l2.15-.69L46,33.44v3.23a2.011,2.011,0,0,0,.4,1.2L49,41.33v3.26a2.013,2.013,0,0,0,.43,1.22A19.905,19.905,0,0,1,35,52h-.05a1.752,1.752,0,0,0,.05-.4V48.62l2.89-1.45A1.985,1.985,0,0,0,39,45.39l.01-1.67,1.74-.57a2.014,2.014,0,0,0,1.31-1.42l.56-2.25a1.982,1.982,0,0,0-.36-1.71A2,2,0,0,0,40.68,37H39.51l-1.38-2.1a1.994,1.994,0,0,0-1.67-.9H33.42l-2.15-2.17a1.985,1.985,0,0,0-2.47-.3L25,33.85V32a9.84,9.84,0,0,0-1.87-5.8l.96-.19a2.345,2.345,0,0,0,.48-.18L28.24,24a1.772,1.772,0,0,0,.7-.59l2.64-3.53,3.27-.82a1.922,1.922,0,0,0,1.19-.82l.94-1.4a2.026,2.026,0,0,0,.16-1.91,2,2,0,0,0-1.51-1.17l-3.99-.67-.4-.72A19.566,19.566,0,0,1,35,12a20.037,20.037,0,0,1,5.62.8A3.99,3.99,0,0,0,43,20h7.98A19.885,19.885,0,0,1,53.51,24.42ZM43,18a2,2,0,0,1,0-4h1.55a1,1,0,0,0,.87-.5.993.993,0,0,0,0-1A2.936,2.936,0,0,1,45,11a3,3,0,0,1,6,0,3.232,3.232,0,0,1-.11.75A1.005,1.005,0,0,0,51.86,13H54.5a2.5,2.5,0,0,1,0,5Z"/><rect width="2" height="2" x="53" y="2"/><rect width="2" height="2" x="60" y="9"/><rect width="2" height="2" x="57.949" y="4.05" transform="rotate(-44.98 58.95 5.05)"/></svg>